<svg aria-hidden="true" style="position: absolute; width: 0; height: 0; overflow: hidden;" version="1.1" xmlns="http://www.w3.org/2000/svg" xmlns:xlink="http://www.w3.org/1999/xlink">
<defs>
  <symbol xmlns="http://www.w3.org/2000/svg" viewBox="0 0 24 24" id="logo">
    <path d="M23.643 4.93701C22.808 5.30701 21.911 5.55701 20.968 5.67001C21.93 5.09401 22.668 4.18001 23.016 3.09201C22.116 3.62601 21.119 4.01401 20.058 4.22201C19.208 3.31801 17.998 2.75201 16.658 2.75201C14.086 2.75201 12 4.83801 12 7.41201C12 7.77601 12.042 8.13001 12.12 8.47201C8.24701 8.27701 4.81601 6.42201 2.51801 3.60401C2.11801 4.29401 1.88801 5.09401 1.88801 5.94601C1.88801 7.56201 2.71101 8.98901 3.96001 9.82401C3.19601 9.79901 2.47801 9.59001 1.85001 9.24101V9.30101C1.85001 11.558 3.45501 13.441 5.58701 13.869C5.19501 13.975 4.78401 14.031 4.36001 14.031C4.06001 14.031 3.76701 14.003 3.48301 13.949C4.07601 15.799 5.79601 17.147 7.83501 17.183C6.24001 18.433 4.23101 19.178 2.04901 19.178C1.67301 19.178 1.30201 19.156 0.937012 19.113C2.99901 20.436 5.44701 21.206 8.07701 21.206C16.647 21.206 21.332 14.108 21.332 7.95201C21.332 7.75201 21.327 7.55001 21.318 7.35001C22.228 6.69201 23.018 5.87301 23.641 4.94001L23.643 4.93701Z" ></path>
  </symbol>
  <symbol id="quit" viewBox="0 0 20 20" xmlns="http://www.w3.org/2000/svg">
    <path d="M2.72746 0.000255738C2.49485 0.000255738 2.26199 0.0888613 2.08472 0.266584L0.266584 2.08472C-0.0888614 2.44016 -0.0888614 3.01566 0.266584 3.3702L6.89639 10L0.266584 16.6298C-0.0888614 16.9852 -0.0888614 17.5607 0.266584 17.9153L2.08472 19.7334C2.44016 20.0889 3.01566 20.0889 3.3702 19.7334L10 13.1036L16.6298 19.7334C16.9843 20.0889 17.5607 20.0889 17.9153 19.7334L19.7334 17.9153C20.0889 17.5598 20.0889 16.9843 19.7334 16.6298L13.1036 10L19.7334 3.3702C20.0889 3.01566 20.0889 2.43926 19.7334 2.08472L17.9153 0.266584C17.5598 -0.0888614 16.9843 -0.0888614 16.6298 0.266584L10 6.89639L3.3702 0.266584C3.19248 0.0888613 2.96007 0.000255738 2.72746 0.000255738Z" />
  </symbol>
  <symbol viewBox="0 0 24 24" xmlns="http://www.w3.org/2000/svg" id="profile">
    <path d="M12 11.816C13.355 11.816 14.872 11.666 15.84 10.56C16.654 9.63001 16.918 8.19201 16.646 6.16801C16.266 3.34301 14.529 1.65601 12 1.65601C9.471 1.65601 7.734 3.34301 7.354 6.17001C7.082 8.19201 7.346 9.63001 8.16 10.56C9.128 11.667 10.645 11.816 12 11.816ZM8.84 6.36801C9.002 5.16801 9.627 3.15601 12 3.15601C14.373 3.15601 14.998 5.16901 15.16 6.36801C15.367 7.91801 15.217 8.99501 14.71 9.57301C14.255 10.093 13.444 10.316 12 10.316C10.556 10.316 9.745 10.093 9.29 9.57301C8.783 8.99501 8.633 7.91701 8.84 6.36801ZM20.28 19.236C19.403 15.71 15.998 13.246 12 13.246C8.002 13.246 4.597 15.71 3.72 19.236C3.548 19.928 3.692 20.636 4.115 21.176C4.523 21.696 5.155 21.996 5.848 21.996H18.152C18.845 21.996 19.477 21.696 19.885 21.176C20.309 20.636 20.452 19.929 20.279 19.236H20.28ZM18.704 20.252C18.578 20.412 18.388 20.498 18.152 20.498H5.848C5.613 20.498 5.422 20.413 5.296 20.252C5.159 20.078 5.116 19.84 5.176 19.598C5.886 16.743 8.693 14.748 12 14.748C15.307 14.748 18.114 16.742 18.824 19.598C18.884 19.84 18.841 20.078 18.704 20.252Z" />
  </symbol>
  <symbol viewBox="0 0 24 24" xmlns="http://www.w3.org/2000/svg" id="home">
    <path d="M22.46 7.57002L12.357 2.11502C12.134 1.99502 11.867 1.99502 11.644 2.11502L1.54299 7.57002C1.17899 7.76702 1.04299 8.22202 1.23999 8.58702C1.37499 8.83702 1.63399 8.98002 1.89999 8.98002C2.01999 8.98002 2.14299 8.95002 2.25599 8.89002L3.07099 8.45002L4.69999 19.963C4.91399 21.178 6.00799 22.025 7.35799 22.025H16.64C17.992 22.025 19.085 21.177 19.303 19.938L20.929 8.44802L21.747 8.89002C22.111 9.08302 22.567 8.95002 22.764 8.58602C22.96 8.22302 22.824 7.76802 22.46 7.57002ZM17.822 19.703C17.715 20.309 17.119 20.525 16.642 20.525H7.35999C6.87999 20.525 6.28499 20.309 6.18199 19.727L4.47999 7.69002L12 3.62802L19.522 7.68802L17.822 19.703Z" />
    <path d="M8.21997 12.1841C8.21997 14.2681 9.91497 15.9641 12 15.9641C14.085 15.9641 15.78 14.2681 15.78 12.1841C15.78 10.1001 14.085 8.40405 12 8.40405C9.91497 8.40405 8.21997 10.1001 8.21997 12.1841ZM14.28 12.1841C14.28 13.4421 13.258 14.4641 12 14.4641C10.742 14.4641 9.71997 13.4421 9.71997 12.1841C9.71997 10.9261 10.742 9.90405 12 9.90405C13.258 9.90405 14.28 10.9261 14.28 12.1841Z" />
  </symbol>
  <symbol viewBox="0 0 24 24" xmlns="http://www.w3.org/2000/svg" id="open">
    <path d="M20.207 8.14699C19.817 7.75699 19.184 7.75699 18.793 8.14699L12 14.94L5.207 8.14699C4.817 7.75699 4.184 7.75699 3.793 8.14699C3.403 8.53699 3.403 9.16999 3.793 9.56099L11.293 17.061C11.488 17.257 11.743 17.355 12 17.355C12.257 17.355 12.512 17.257 12.707 17.062L20.207 9.56199C20.597 9.17199 20.597 8.53999 20.207 8.14899V8.14699Z" />
  </symbol>
  <symbol viewBox="0 0 24 24" xmlns="http://www.w3.org/2000/svg" id="search">
    <path d="M21.53 20.47L17.87 16.81C19.195 15.24 20 13.214 20 11C20 6.03 15.97 2 11 2C6.03 2 2 6.03 2 11C2 15.97 6.03 20 11 20C13.215 20 15.24 19.196 16.808 17.87L20.468 21.53C20.615 21.676 20.808 21.75 20.998 21.75C21.188 21.75 21.383 21.677 21.528 21.53C21.823 21.237 21.823 20.763 21.53 20.47ZM3.5 11C3.5 6.865 6.865 3.5 11 3.5C15.135 3.5 18.5 6.865 18.5 11C18.5 15.135 15.135 18.5 11 18.5C6.865 18.5 3.5 15.135 3.5 11Z" />
  </symbol>
  <symbol viewBox="0 0 24 24" xmlns="http://www.w3.org/2000/svg" id="edit">
    <path d="M 18.414062 2 C 18.158188 2 17.902031 2.0974687 17.707031 2.2929688 L 16 4 L 20 8 L 21.707031 6.2929688 C 22.098031 5.9019687 22.098031 5.2689063 21.707031 4.8789062 L 19.121094 2.2929688 C 18.925594 2.0974687 18.669937 2 18.414062 2 z M 14.5 5.5 L 3 17 L 3 21 L 7 21 L 18.5 9.5 L 14.5 5.5 z" />
  </symbol>
  <symbol viewBox="0 0 35 33" xmlns="http://www.w3.org/2000/svg" id="title">
    <path d="M34.1068 14.1967L25.4458 10.8174L22.1158 0.796567C21.9585 0.323275 21.5145 0.00415039 21.0181 0.00415039C20.5217 0.00415039 20.0777 0.323275 19.9204 0.795025L16.5904 10.8159L7.92625 14.1952C7.48379 14.3679 7.19088 14.7964 7.19088 15.2744C7.19088 15.7523 7.48379 16.1762 7.92779 16.3504L16.592 19.7298L19.922 29.7506C20.0792 30.2224 20.5232 30.5415 21.0196 30.5415C21.516 30.5415 21.96 30.2224 22.1173 29.7506L25.4473 19.7298L34.1115 16.3504C34.5539 16.1778 34.8468 15.7492 34.8468 15.2713C34.8468 14.7934 34.5539 14.3694 34.1099 14.1967H34.1068ZM24.1014 17.7734C23.7808 17.8967 23.531 18.1588 23.4231 18.4826L21.0181 25.7207L18.6131 18.4856C18.5052 18.1619 18.2585 17.8998 17.9378 17.7734L11.5322 15.2759L17.9363 12.7753C18.257 12.652 18.5067 12.3899 18.6146 12.0631L21.0196 4.82803L23.4246 12.0646C23.5325 12.3914 23.7792 12.6535 24.0999 12.7784L30.5055 15.2759L24.0999 17.7765L24.1014 17.7734ZM9.27213 3.87682H6.37379V1.1604C6.37379 0.52215 5.85425 0.00415039 5.21754 0.00415039C4.58083 0.00415039 4.06129 0.52215 4.06129 1.1604V3.87682H1.3125C0.67425 3.87682 0.15625 4.39482 0.15625 5.03307C0.15625 5.67132 0.67425 6.18932 1.3125 6.18932H4.05975V8.90573C4.05975 9.54398 4.57775 10.062 5.216 10.062C5.85425 10.062 6.37225 9.54398 6.37225 8.90573V6.18932H9.27058C9.91038 6.18932 10.4268 5.67132 10.4268 5.03307C10.4268 4.39482 9.91038 3.87682 9.27058 3.87682H9.27213ZM13.1803 27.9607H11.4844V26.3944C11.4844 25.7561 10.968 25.2381 10.3282 25.2381C9.68838 25.2381 9.17192 25.7561 9.17192 26.3944V27.9607H7.58708C6.94883 27.9607 6.43083 28.4787 6.43083 29.117C6.43083 29.7552 6.94883 30.2732 7.58708 30.2732H9.175V31.8396C9.175 32.4778 9.69146 32.9958 10.3313 32.9958C10.971 32.9958 11.4875 32.4778 11.4875 31.8396V30.2732H13.1803C13.8185 30.2732 14.3365 29.7552 14.3365 29.117C14.3365 28.4787 13.8185 27.9607 13.1803 27.9607Z" />
  </symbol>
  <symbol xmlns="http://www.w3.org/2000/svg" viewBox="0 0 50 50" id="burger">
    <path d="M 5 8 A 2.0002 2.0002 0 1 0 5 12 L 45 12 A 2.0002 2.0002 0 1 0 45 8 L 5 8 z M 5 23 A 2.0002 2.0002 0 1 0 5 27 L 45 27 A 2.0002 2.0002 0 1 0 45 23 L 5 23 z M 5 38 A 2.0002 2.0002 0 1 0 5 42 L 45 42 A 2.0002 2.0002 0 1 0 45 38 L 5 38 z" />
  </symbol>
</defs>
</svg>